<svg width="562" height="120" viewBox="0 0 562 120" fill="none" xmlns="http://www.w3.org/2000/svg" aria-label="HEIMDEX"><rect x="14" y="17.4166" width="8.94444" height="8.94444" fill="#93C8FF"></rect><rect x="75.3333" y="96.6388" width="8.94444" height="8.94444" fill="#93C8FF"></rect><rect x="42.1111" y="57.0277" width="8.94444" height="8.94444" fill="#93C8FF"></rect><rect x="76.6111" y="57.0277" width="8.94444" height="8.94444" fill="#93C8FF"></rect><rect x="51.0555" y="57.0277" width="25.5556" height="8.94444" fill="#3A70E2"></rect><rect x="42.1111" y="48.0833" width="8.94444" height="8.94444" fill="#3A70E2"></rect><rect x="76.6111" y="48.0833" width="8.94444" height="8.94444" fill="#3A70E2"></rect><rect x="42.1111" y="65.9722" width="8.94444" height="8.94444" fill="#3A70E2"></rect><rect x="76.6111" y="65.9722" width="8.94444" height="8.94444" fill="#3A70E2"></rect><rect x="22.9445" y="25.0833" width="21.7222" height="8.94444" fill="#3A70E2"></rect><rect x="22.9445" y="34.0277" width="8.94444" height="15.3333" fill="#3A70E2"></rect><rect width="21.7222" height="8.94444" transform="matrix(1 0 0 -1 22.9445 96.6388)" fill="#3A70E2"></rect><rect width="8.94444" height="15.3333" transform="matrix(1 0 0 -1 22.9445 87.6943)" fill="#3A70E2"></rect><path d="M106 48.7221C106 45.6178 105.389 42.5439 104.201 39.6759C103.013 36.8079 101.271 34.202 99.0763 32.0069C96.8813 29.8118 94.2753 28.0706 91.4073 26.8827C88.5393 25.6947 85.4654 25.0833 82.3611 25.0833L82.3611 33.4593C84.3655 33.4593 86.3502 33.8541 88.202 34.6211C90.0537 35.3881 91.7363 36.5124 93.1536 37.9297C94.5709 39.347 95.6951 41.0295 96.4621 42.8813C97.2292 44.7331 97.624 46.7178 97.624 48.7221H106Z" fill="#3A70E2"></path><path d="M106 72.9999C106 76.1042 105.389 79.1781 104.201 82.0461C103.013 84.9141 101.271 87.5201 99.0763 89.7151C96.8813 91.9102 94.2753 93.6514 91.4073 94.8394C88.5393 96.0274 85.4654 96.6388 82.3611 96.6388L82.3611 88.2627C84.3655 88.2627 86.3502 87.868 88.202 87.1009C90.0537 86.3339 91.7363 85.2097 93.1536 83.7924C94.5709 82.3751 95.6951 80.6925 96.4621 78.8407C97.2292 76.989 97.624 75.0042 97.624 72.9999H106Z" fill="#3A70E2"></path><path d="M155.703 78H142V42H155.703V78Z" fill="#3A70E2"></path><path d="M199.553 78H185.85V63.3332H155.703C155.704 59.6514 158.773 56.6668 162.557 56.6668H185.85V42H199.553V78Z" fill="#3A70E2"></path><path d="M262.587 42C262.587 45.6819 259.515 48.6664 255.731 48.6664H218.738V71.3336H255.731C259.515 71.3336 262.587 74.3181 262.587 78H205.034V42H262.587Z" fill="#3A70E2"></path><path d="M283.142 78H268.069V42H283.142V78Z" fill="#3A70E2"></path><path d="M301.641 42C308.514 42.0004 318.488 54.536 325.51 64.8126C332.049 54.5362 340.605 42.0011 343.435 42C348.214 42 359.795 42 359.879 42V78H344.806V48.6664L325.622 78H318.085L295.475 48.6664V78H288.623V42H301.641Z" fill="#3A70E2"></path><path fill-rule="evenodd" clip-rule="evenodd" d="M411.266 42C421.483 42.0003 429.766 50.0591 429.766 60C429.766 69.9409 421.483 77.9997 411.266 78H365.36V42H411.266ZM379.064 71.3336H403.73C410.541 71.3333 416.062 65.9602 416.062 59.333C416.062 52.7059 410.54 47.3336 403.73 47.3333H379.064V71.3336Z" fill="#3A70E2"></path><path d="M491.429 42C491.429 45.6818 488.358 48.6663 484.574 48.6664H447.579V71.3336H484.574C488.358 71.3337 491.429 74.3182 491.429 78H433.876V42H491.429Z" fill="#3A70E2"></path><path d="M530.154 53.7498L546.926 42H559.26L536.064 58.2498L562 78H542.815L526.199 65.1604L507.872 78H495.54L520.334 60.629L496.225 42H514.724L530.154 53.7498Z" fill="#3A70E2"></path><path d="M255.736 63.3332H218.738C218.738 59.6514 221.808 56.6668 225.592 56.6668H255.736V63.3332Z" fill="#3A70E2"></path><path d="M484.578 63.3332H447.579C447.579 59.6514 450.65 56.6669 454.433 56.6668H484.578V63.3332Z" fill="#3A70E2"></path></svg>
